<svg xmlns="http://www.w3.org/2000/svg" viewBox="0 0 28 28"><g id="min" fill-rule="evenodd"><path fill="#713938" fill-opacity="1" class="c0" d="M19,0h2v2h1v-1h2v3h1v2h-1v1h-1v2h1v-1h1v1h-1v2h1v1h-1v1h2v5h-2v9h-1v1h-8v-2h-2v2h-8v-10h-2v-5h2v-1h-1v-1h1v-3h1v-1h-1v-1h2v-1h1v-1h-1v-1h1v1h1v-1h2v-2h1v1h4v-1h1v1h1v-1h1zM19,3h1v-2h-1zM22,3h1v-1h-1v1h-1v1h1zM11,5h1v2h-1zM14,5h1v2h-1zM8,6h1v1h-1v-1h-1v2h-1v5h14v-1h-1v-1h1v1h1v1h2v-4h-2v1h-1v-1h1v-1h1v-1h-1v-2h-1v-1h-2v-1h-7v1h-2v1h-1zM22,6h2v-2h-1v1h-1zM19,7h1v1h-1zM11,8h1v1h2v-1h1v1h-1v1h-2v-1h-1zM7,11h1v1h-1zM4,17h21v-3h-21zM12,25h4v2h7v-9h-17v9h6z" /><path fill="#bccd81" fill-opacity="1" class="c1" d="M11,3h7v1h2v1h1v2h1v1h-1v1h2v4h-2v-1h-1v1h-14v-5h1v-2h1v-1h1v-1h2zM8,7h1v-1h-1zM11,7h1v-2h-1zM14,7h1v-2h-1zM19,8h1v-1h-1zM11,9h1v-1h-1zM14,9h1v-1h-1v1h-2v1h2zM20,10h1v-1h-1zM7,12h1v-1h-1zM19,12h1v-1h-1z" /><path fill="#eaae8a" fill-opacity="1" class="c2" d="M4,14h21v3h-21zM6,18h17v9h-7v-2h-4v2h-6z" /><path fill="#ff5f5c" fill-opacity="1" class="c3" d="M19,1h1v2h-1zM22,2h1v1h-1v1h-1v-1h1zM23,4h1v2h-2v-1h1z" /></g></svg>