<?xml version="1.0" encoding="UTF-8" standalone="no"?>
<!-- Created with Inkscape (http://www.inkscape.org/) -->

<svg
   width="210mm"
   height="210mm"
   viewBox="0 0 210 210"
   version="1.1"
   id="svg1"
   xmlns="http://www.w3.org/2000/svg"
   xmlns:svg="http://www.w3.org/2000/svg">
  <defs
     id="defs1">
    <linearGradient
       id="swatch1">
      <stop
         style="stop-color:#000000;stop-opacity:1;"
         offset="0"
         id="stop1" />
    </linearGradient>
  </defs>
  <g
     id="layer1">
    <rect
       style="display:inline;fill:none;fill-opacity:1;stroke:#000000;stroke-width:3.477;stroke-linecap:round;stroke-linejoin:round;stroke-dasharray:none;stroke-dashoffset:0"
       id="rect7"
       width="182.10234"
       height="21.158302"
       x="13.343367"
       y="105.96574" />
    <path
       id="rect9"
       style="display:inline;fill:none;stroke:#000000;stroke-width:3.431;stroke-linecap:round;stroke-linejoin:round;stroke-dasharray:none"
       d="M 25.309384,126.88893 H 187.34952 L 165.35265,192.8085 H 47.306263 Z" />
    <path
       id="path9"
       style="display:inline;fill:none;stroke:#000000;stroke-width:4.346;stroke-dasharray:none"
       d="m 106.19929,23.344272 a 77.744522,77.744522 0 0 0 -77.744309,77.744308 77.744522,77.744522 0 0 0 0.321374,4.48928 H 183.62277 a 77.744522,77.744522 0 0 0 0.32138,-4.48928 77.744522,77.744522 0 0 0 -77.74486,-77.744308 z" />
    <path
       style="fill:#000000;fill-opacity:1;stroke:#000000;stroke-width:4.462;stroke-linecap:round;stroke-linejoin:round;stroke-dasharray:none;stroke-dashoffset:0"
       d="M 87.399975,57.763613 V 72.639332"
       id="path13" />
    <path
       style="fill:#000000;fill-opacity:1;stroke:#000000;stroke-width:4.462;stroke-linecap:round;stroke-linejoin:round;stroke-dasharray:none;stroke-dashoffset:0"
       d="M 62.380018,57.763613 V 72.639332"
       id="path14" />
    <path
       style="fill:none;fill-opacity:1;stroke:#000000;stroke-width:2.58;stroke-linecap:round;stroke-linejoin:round;stroke-dasharray:none;stroke-dashoffset:0;stroke-opacity:1"
       d="m 64.862623,84.240971 c 0,0 3.190002,4.394011 9.729585,4.394011 8.924909,0 10.231763,-4.394011 10.231763,-4.394011"
       id="path15" />
    <path
       style="fill:none;fill-opacity:1;stroke:#000000;stroke-width:1.99214;stroke-linecap:round;stroke-linejoin:round;stroke-dasharray:none;stroke-dashoffset:0;stroke-opacity:1"
       d="m 117.50395,10.016115 v 1 1 1 1 1 1 1 1 1"
       id="path18"
       transform="translate(-11.622422,1.8847171)" />
    <path
       style="fill:none;fill-opacity:1;stroke:#000000;stroke-width:1.99178;stroke-linecap:round;stroke-linejoin:round;stroke-dasharray:none;stroke-dashoffset:0;stroke-opacity:1"
       d="m 117.50395,10.016115 v 1 1 1 1 1 1 1 1 1"
       id="path25"
       transform="rotate(22.100181,101.75493,76.727758)" />
    <path
       style="fill:none;fill-opacity:1;stroke:#000000;stroke-width:1.99214;stroke-linecap:round;stroke-linejoin:round;stroke-dasharray:none;stroke-dashoffset:0;stroke-opacity:1"
       d="m 117.50395,10.016115 v 1 1 1 1 1 1 1 1 1"
       id="path27"
       transform="rotate(52.494018,108.81889,91.261186)" />
    <path
       style="fill:none;fill-opacity:1;stroke:#000000;stroke-width:1.99214;stroke-linecap:round;stroke-linejoin:round;stroke-dasharray:none;stroke-dashoffset:0;stroke-opacity:1"
       d="m 117.50395,10.016115 v 1 1 1 1 1 1 1 1 1"
       id="path29"
       transform="rotate(-81.713449,112.62329,104.57259)" />
    <path
       style="fill:none;fill-opacity:1;stroke:#000000;stroke-width:1.99214;stroke-linecap:round;stroke-linejoin:round;stroke-dasharray:none;stroke-dashoffset:0;stroke-opacity:1"
       d="m 117.50395,10.016115 v 1 1 1 1 1 1 1 1 1"
       id="path31"
       transform="rotate(-22.488862,122.51455,128.753)" />
    <path
       style="fill:none;fill-opacity:1;stroke:#000000;stroke-width:1.99214;stroke-linecap:round;stroke-linejoin:round;stroke-dasharray:none;stroke-dashoffset:0;stroke-opacity:1"
       d="m 117.50395,10.016115 v 1 1 1 1 1 1 1 1 1"
       id="path33"
       transform="rotate(68.792346,106.82041,95.619773)" />
    <path
       style="fill:none;fill-opacity:1;stroke:#000000;stroke-width:1.99214;stroke-linecap:round;stroke-linejoin:round;stroke-dasharray:none;stroke-dashoffset:0;stroke-opacity:1"
       d="m 117.50395,10.016115 v 1 1 1 1 1 1 1 1 1"
       id="path35"
       transform="rotate(94.689469,115.54152,90.239384)" />
    <path
       style="fill:none;fill-opacity:1;stroke:#000000;stroke-width:1.99178;stroke-linecap:round;stroke-linejoin:round;stroke-dasharray:none;stroke-dashoffset:0;stroke-opacity:1"
       d="m 120.22089,50.484657 8.65501,-13.32997"
       id="path41" />
    <path
       style="fill:none;fill-opacity:1;stroke:#000000;stroke-width:1.99178;stroke-linecap:round;stroke-linejoin:round;stroke-dasharray:none;stroke-dashoffset:0;stroke-opacity:1"
       d="m 143.07211,71.394392 13.52581,-8.345634"
       id="path42" />
    <path
       style="fill:none;fill-opacity:1;stroke:#000000;stroke-width:1.99178;stroke-linecap:round;stroke-linejoin:round;stroke-dasharray:none;stroke-dashoffset:0;stroke-opacity:1"
       d="m 145.43733,90.780539 15.07774,1.413536"
       id="path48" />
  </g>
</svg>
